<?xml version="1.0" encoding="utf-8"?>
<!-- Generator: Adobe Illustrator 16.0.3, SVG Export Plug-In . SVG Version: 6.00 Build 0)  -->
<!DOCTYPE svg PUBLIC "-//W3C//DTD SVG 1.1//EN" "http://www.w3.org/Graphics/SVG/1.1/DTD/svg11.dtd">
<svg version="1.1" id="svg3813" xmlns:svg="http://www.w3.org/2000/svg"
	 xmlns="http://www.w3.org/2000/svg" xmlns:xlink="http://www.w3.org/1999/xlink" x="0px" y="0px" width="261px" height="46px"
	 viewBox="0 0 261 46" enable-background="new 0 0 261 46" xml:space="preserve">
<g id="layer1" transform="translate(-281.11825,-394.90484)">
	<path id="path102" fill="#1C4178" d="M343.931,396.639v43.156h15.125v-17.938h15.594v-7.156h-15.594v-7.25h19.313v-10.813h-19.313
		h-5.25H343.931z"/>
	<path id="path114" fill="#1C4178" d="M386.025,396.577v43.25h15.063V421.92h11.719v17.906h15.063v-43.25h-15.063v14.5h-11.719
		v-14.5H386.025z"/>
	<path id="path128" fill="#1C4178" d="M469.665,439.876h15.109l7.711-43.238h-16.074l-2.579,21.719l-4.167-21.719h-15.214
		l-3.845,21.914l-3.764-21.914h-15.212l8.136,42.939l14.685,0.299l7.923-24.747"/>
	<path id="path134" fill="#1C4178" d="M526.587,396.545l-18.875,0.094l-15.625,43.313v0.031l15.625-0.094l2.438-10.969h13.656
		l2.438,10.969h15.688L526.587,396.545L526.587,396.545z M514.493,410.733h4.938l2.719,11.125h-10.375L514.493,410.733z"/>
	<path fill="#1C4178" d="M303.384,396.08c3.287-0.121,8.21,1.278,10.886,2.739c3.832,2.126,8.878,7.295,9.789,13.257
		c0.61,3.647-0.302,7.479-3.89,9.607c-4.865,2.915-12.528-0.977-11.615-7.604c0.791-5.41,0.548-9.486-3.041-12.586
		c0,0-5.107-4.379-11.673-2.795C296.94,396.264,303.384,396.08,303.384,396.08 M320.596,430.195
		c-2.31,2.796-5.475,5.471-9.549,6.932c-4.5,1.581-10.336,2.492-15.991-1.397c-3.892-2.738-3.345-7.662-2.432-9.791
		c2.126-4.563,8.389-6.202,12.707-2.129c0.303,0.305,5.105,4.258,9.852,3.224c0,0,6.566-1.461,9.544-8.818
		C325.459,423.383,320.596,430.195,320.596,430.195 M287.941,431.045c-3.526-4.5-4.378-7.479-5.046-11.434
		c-0.424-7.66,1.642-13.377,6.384-17.451c3.039-2.614,6.75-3.282,10.033-1.519c4.684,2.431,5.597,8.878,1.826,12.465
		c-4.137,3.952-9.915,2.31-11.494,10.581c0,0-1.095,5.594,2.918,11.249C290.191,433.6,287.941,431.045,287.941,431.045"/>
</g>
</svg>
